<svg xmlns="http://www.w3.org/2000/svg" class="svg-logo" width="2400" height="2400" viewBox="0 0 630 430" style="height: auto;"><rect width="630" height="630" y="-100" rx="0" ry="0" fill="transparent" fill-opacity="0"></rect><g data-element="wrapper" transform="translate(-62.99998168945626 -43.00000000000213) scale(1.20000000000001)"><g ><g data-element="icon" transform="scale(0.13333333333333333) translate(1098.2226524353027 1312.5001373291016)"><path id="color_x5F_1_3_" d="M497.126,480.62c-66.479,19.112-130.297-15.914-170.484-67.792    c7.973-10.525,14.645-20.938,19.961-30.062c31.561,45.082,83.731,81.775,141.159,65.264    c73.964-21.266,105.576-117.358,51.003-174.826c-71.52-75.313-158.882-14.559-200.266,56.498    c-39.747,68.249-97.417,147.759-191.361,156.92c-51.946,5.065-107.565-15.556-132.82-63.568    C-23.619,350.937,17.557,261.223,94,238.078c24.531-7.427,50.399-7.94,77.183-1.568c-2.892-54.072,29.281-103.183,81.776-118.878    c48.695-14.558,109.237,1.826,134.815,60.204c-11.245,6.472-28.772,19.309-28.772,19.309    c-17.045-47.002-61.882-57.324-96.332-47.025c-22.703,6.788-67.5,34.479-62.601,121.886c0.428-5.183-91.293-26.392-136.726,21.652    c-67.141,70.998-6.838,167.735,80.506,159.215c78.634-7.67,129.673-78.977,165.353-140.244    c32.112-55.139,80.02-117.148,165.968-107.195c33.33,3.86,64.648,19.636,88.185,44.422    C635.256,325.576,595.118,452.449,497.126,480.62z" fill="#ffffff" fill-opacity="1"></path></g><path d="M258.16 243.83C262.32 243.83 265.97 241.59 268.72 238.90L268.91 238.90L269.42 243L274.16 243L274.16 192.06L268.40 192.06L268.40 205.43L268.65 211.45C265.58 208.89 262.96 207.35 258.86 207.35C250.93 207.35 243.82 214.39 243.82 225.66C243.82 237.24 249.45 243.83 258.16 243.83ZM259.44 238.97C253.29 238.97 249.84 233.98 249.84 225.59C249.84 217.66 254.25 212.28 259.89 212.28C262.77 212.28 265.39 213.30 268.40 215.93L268.40 234.17C265.45 237.37 262.64 238.97 259.44 238.97ZM294.00 243.83C298.29 243.83 302.19 241.59 305.52 238.84L305.71 238.84L306.22 243L311.02 243L311.02 221.62C311.02 213.05 307.44 207.35 298.99 207.35C293.42 207.35 288.49 209.85 285.29 211.90L287.60 215.93C290.35 214.07 294.00 212.22 298.03 212.22C303.73 212.22 305.20 216.50 305.20 220.98C290.41 222.65 283.82 226.42 283.82 233.98C283.82 240.25 288.17 243.83 294.00 243.83ZM295.66 239.16C292.21 239.16 289.52 237.56 289.52 233.59C289.52 229.11 293.49 226.23 305.20 224.82L305.20 234.55C301.81 237.56 299.05 239.16 295.66 239.16ZM332.08 243.83C334.19 243.83 336.49 243.19 338.48 242.55L337.33 238.20C336.17 238.65 334.57 239.10 333.36 239.10C329.33 239.10 327.98 236.66 327.98 232.38L327.98 212.98L337.39 212.98L337.39 208.25L327.98 208.25L327.98 198.46L323.12 198.46L322.41 208.25L316.97 208.57L316.97 212.98L322.16 212.98L322.16 232.25C322.16 239.16 324.65 243.83 332.08 243.83ZM351.73 243.83C356.01 243.83 359.92 241.59 363.25 238.84L363.44 238.84L363.95 243L368.75 243L368.75 221.62C368.75 213.05 365.17 207.35 356.72 207.35C351.15 207.35 346.22 209.85 343.02 211.90L345.33 215.93C348.08 214.07 351.73 212.22 355.76 212.22C361.45 212.22 362.93 216.50 362.93 220.98C348.14 222.65 341.55 226.42 341.55 233.98C341.55 240.25 345.90 243.83 351.73 243.83ZM353.39 239.16C349.93 239.16 347.25 237.56 347.25 233.59C347.25 229.11 351.21 226.23 362.93 224.82L362.93 234.55C359.53 237.56 356.78 239.16 353.39 239.16ZM387.31 243L394.09 243L406.45 208.25L400.69 208.25L394.09 228.02C393.07 231.42 391.98 235 390.89 238.26L390.64 238.26C389.55 235 388.46 231.42 387.37 228.02L380.85 208.25L374.77 208.25ZM413.17 243L418.99 243L418.99 208.25L413.17 208.25ZM416.11 201.08C418.41 201.08 420.01 199.54 420.01 197.18C420.01 194.94 418.41 193.40 416.11 193.40C413.81 193.40 412.21 194.94 412.21 197.18C412.21 199.54 413.81 201.08 416.11 201.08ZM441.71 243.83C443.82 243.83 446.13 243.19 448.11 242.55L446.96 238.20C445.81 238.65 444.21 239.10 442.99 239.10C438.96 239.10 437.61 236.66 437.61 232.38L437.61 212.98L447.02 212.98L447.02 208.25L437.61 208.25L437.61 198.46L432.75 198.46L432.05 208.25L426.61 208.57L426.61 212.98L431.79 212.98L431.79 232.25C431.79 239.16 434.29 243.83 441.71 243.83ZM467.95 243.83C472.69 243.83 476.40 242.23 479.47 240.25L477.36 236.41C474.80 238.14 472.05 239.16 468.65 239.16C462.06 239.16 457.52 234.42 457.13 227L480.56 227C480.69 226.17 480.81 224.95 480.81 223.67C480.81 213.75 475.82 207.35 466.99 207.35C458.93 207.35 451.31 214.39 451.31 225.66C451.31 237.11 458.73 243.83 467.95 243.83ZM457.07 222.78C457.77 215.99 462.13 212.02 467.05 212.02C472.49 212.02 475.69 215.80 475.69 222.78Z" data-element="company-name" data-text-path="" data-text="datavite" data-font-family="JP Noto Sans" fill="#ffffff" fill-opacity="1"></path></g></g></svg>